<svg version="1.1" id="Layer_1" xmlns="http://www.w3.org/2000/svg" xmlns:xlink="http://www.w3.org/1999/xlink" x="0px" y="0px"
	 width="100%" viewBox="0 0 1080 1080" enable-background="new 0 0 1080 1080" xml:space="preserve">
<path fill="#020201" opacity="1.000000" stroke="none" 
	d="
M514.000000,1.000005 
	C532.354248,1.000000 550.708435,1.000000 569.739380,1.379753 
	C587.130859,3.486723 603.910278,4.743218 620.548401,7.028375 
	C672.938232,14.223842 723.013855,29.478828 770.714783,52.192078 
	C874.974243,101.836182 955.614624,177.072723 1012.406494,277.568329 
	C1052.800293,349.047089 1074.939819,426.058838 1080.025146,507.992310 
	C1080.088257,509.011108 1080.663696,509.998138 1081.000000,511.000000 
	C1081.000000,530.687561 1081.000000,550.375122 1080.626709,570.744141 
	C1077.931641,608.882812 1072.249023,645.792725 1062.397095,682.039124 
	C1041.731079,758.072449 1006.098389,826.322510 955.703430,886.837646 
	C913.831360,937.118469 864.431763,978.526489 807.522949,1010.813110 
	C738.578918,1049.927612 664.496765,1072.602173 585.500488,1079.230835 
	C580.320618,1079.665527 575.166260,1080.403198 570.000000,1081.000000 
	C549.979126,1081.000000 529.958191,1081.000000 509.278870,1080.610596 
	C474.499329,1078.069458 440.769379,1073.087524 407.697479,1064.515991 
	C352.190430,1050.129517 299.993622,1027.948853 251.577179,996.959717 
	C184.637268,954.114441 129.324570,899.561035 86.479340,832.685059 
	C36.164658,754.150208 7.947691,668.181396 2.005939,574.999756 
	C1.941080,573.982605 1.347025,572.999146 1.000004,572.000000 
	C1.000000,551.312439 1.000000,530.624878 1.396345,509.300293 
	C3.837873,490.649353 5.319239,472.549896 8.036176,454.637817 
	C15.556486,405.058350 30.372288,357.627258 51.741028,312.278259 
	C89.845589,231.412323 144.679123,164.064774 215.814285,109.975533 
	C265.492035,72.201904 320.126343,43.890034 379.701508,25.392899 
	C422.744507,12.028739 466.772003,3.630335 511.930969,1.857002 
	C512.630798,1.829522 513.310791,1.296896 514.000000,1.000005 
M108.013199,269.551270 
	C102.453262,279.010193 96.562477,288.291931 91.386536,297.956482 
	C54.862949,366.154022 34.246078,438.782532 30.676888,516.191650 
	C27.904568,576.318054 34.983761,635.188599 52.931297,692.637634 
	C77.165001,770.208313 117.456375,838.349365 174.217346,896.589417 
	C219.057922,942.598450 270.401337,979.435181 329.033264,1006.049133 
	C381.003021,1029.639038 435.339294,1044.276855 492.084473,1049.740112 
	C526.156311,1053.020508 560.269165,1052.755615 594.367065,1049.172974 
	C634.425598,1044.963989 673.465027,1036.341675 711.378540,1022.814758 
	C805.565491,989.210205 883.561523,932.796692 944.823486,853.977600 
	C1007.179077,773.751587 1042.212280,682.550232 1050.295532,581.099854 
	C1054.293457,530.921753 1051.101562,481.236206 1040.315552,432.108917 
	C1022.139771,349.323059 985.658203,275.508820 930.824829,210.823730 
	C898.075623,172.190582 860.749023,138.651138 818.016968,111.436844 
	C745.277771,65.112213 666.058228,37.929016 579.790161,31.644308 
	C535.339966,28.406063 491.215515,30.358219 447.426025,38.410683 
	C378.456024,51.093601 314.857910,77.430168 256.693024,116.343376 
	C196.518921,156.600800 147.187256,207.726776 108.013199,269.551270 
z"/>

<path fill="#FFDE59" opacity="1.000000" stroke="none" 
	d="
M108.208374,269.244446 
	C147.187256,207.726776 196.518921,156.600800 256.693024,116.343376 
	C314.857910,77.430168 378.456024,51.093601 447.426025,38.410683 
	C491.215515,30.358219 535.339966,28.406063 579.790161,31.644308 
	C666.058228,37.929016 745.277771,65.112213 818.016968,111.436844 
	C860.749023,138.651138 898.075623,172.190582 930.824829,210.823730 
	C985.658203,275.508820 1022.139771,349.323059 1040.315552,432.108917 
	C1051.101562,481.236206 1054.293457,530.921753 1050.295532,581.099854 
	C1042.212280,682.550232 1007.179077,773.751587 944.823486,853.977600 
	C883.561523,932.796692 805.565491,989.210205 711.378540,1022.814758 
	C673.465027,1036.341675 634.425598,1044.963989 594.367065,1049.172974 
	C560.269165,1052.755615 526.156311,1053.020508 492.084473,1049.740112 
	C435.339294,1044.276855 381.003021,1029.639038 329.033264,1006.049133 
	C270.401337,979.435181 219.057922,942.598450 174.217346,896.589417 
	C117.456375,838.349365 77.165001,770.208313 52.931297,692.637634 
	C34.983761,635.188599 27.904568,576.318054 30.676888,516.191650 
	C34.246078,438.782532 54.862949,366.154022 91.386536,297.956482 
	C96.562477,288.291931 102.453262,279.010193 108.208374,269.244446 
M458.500000,663.001770 
	C492.328064,662.969604 526.160339,663.243103 559.982361,662.775085 
	C576.654175,662.544373 593.177124,660.180481 608.794312,653.726257 
	C629.193542,645.295776 643.587463,631.423157 646.830139,608.758850 
	C650.365417,584.050171 643.851074,562.794067 622.569031,547.887390 
	C617.195068,544.123291 610.992249,541.542542 604.969604,538.310425 
	C606.334961,537.434875 607.831665,536.465576 609.337646,535.510803 
	C617.666199,530.230225 624.243225,523.284973 628.942139,514.621155 
	C645.910095,483.336060 632.256592,447.045502 598.321167,433.152618 
	C580.739136,425.954681 562.255737,424.189941 543.504578,424.171661 
	C507.009979,424.136017 470.515320,424.160950 434.020691,424.160797 
	C432.408356,424.160797 430.795990,424.160797 428.991272,424.160797 
	C428.991272,503.991211 428.991272,583.245178 428.991272,663.001770 
	C438.598206,663.001770 448.049103,663.001770 458.500000,663.001770 
M887.503113,550.942505 
	C892.951843,540.818481 895.737549,529.932190 896.615784,518.536194 
	C899.694519,478.587036 880.271362,447.337921 843.904175,433.105804 
	C826.722778,426.381958 808.764465,424.343323 790.555664,424.221619 
	C758.734863,424.008881 726.911682,424.161957 695.089478,424.161713 
	C693.477112,424.161713 691.864746,424.161713 690.199707,424.161713 
	C690.199707,504.074158 690.199707,583.425903 690.199707,662.717773 
	C708.621643,662.717773 726.700256,662.717773 745.279236,662.717773 
	C745.279236,640.553162 745.279236,618.667725 745.279236,596.523193 
	C760.600403,596.523193 775.421875,596.678955 790.236267,596.422363 
	C794.347107,596.351196 796.822815,597.522644 799.173218,600.997192 
	C810.920776,618.363098 823.493713,635.193787 834.683960,652.903015 
	C839.790100,660.983887 845.353088,663.769470 854.720154,663.234802 
	C869.919861,662.367126 885.205261,663.001038 901.297058,663.001038 
	C883.188721,637.031738 865.570251,611.765076 847.937073,586.477295 
	C873.036499,571.275940 878.565247,566.336487 887.503113,550.942505 
M340.110565,532.664673 
	C361.787476,496.711487 383.464386,460.758240 405.530914,424.158783 
	C388.238220,424.158783 371.944458,424.261902 355.654114,424.071869 
	C352.392792,424.033875 350.620697,425.039703 348.969788,427.822479 
	C337.429016,447.275391 325.712646,466.624176 314.045563,486.002136 
	C305.259735,500.594604 296.463806,515.180969 287.440948,530.154114 
	C285.928772,527.693054 284.699493,525.727234 283.503723,523.741211 
	C264.287598,491.825989 245.049866,459.923706 225.910110,427.962738 
	C224.311447,425.293182 222.692429,424.011292 219.315842,424.057190 
	C202.821899,424.281494 186.323212,424.151733 169.826248,424.171783 
	C168.464157,424.173431 167.102310,424.358612 165.153534,424.501587 
	C166.578201,426.908600 167.575882,428.620941 168.598587,430.318237 
	C197.353516,478.040161 226.143295,525.741150 254.777908,573.535095 
	C256.300964,576.077271 257.210297,579.397034 257.233002,582.363770 
	C257.424225,607.357788 257.341919,632.353821 257.341888,657.349304 
	C257.341888,659.130371 257.341888,660.911438 257.341888,662.596680 
	C276.141632,662.596680 294.350647,662.596680 312.753815,662.596680 
	C312.753815,635.541504 312.699768,608.892029 312.842621,582.243652 
	C312.856018,579.746643 313.610504,576.961182 314.873901,574.810791 
	C323.045593,560.902039 331.454102,547.132446 340.110565,532.664673 
z"/>
<path fill="#010100" opacity="1.000000" stroke="none" 
	d="
M458.000000,663.001770 
	C448.049103,663.001770 438.598206,663.001770 428.991272,663.001770 
	C428.991272,583.245178 428.991272,503.991211 428.991272,424.160797 
	C430.795990,424.160797 432.408356,424.160797 434.020691,424.160797 
	C470.515320,424.160950 507.009979,424.136017 543.504578,424.171661 
	C562.255737,424.189941 580.739136,425.954681 598.321167,433.152618 
	C632.256592,447.045502 645.910095,483.336060 628.942139,514.621155 
	C624.243225,523.284973 617.666199,530.230225 609.337646,535.510803 
	C607.831665,536.465576 606.334961,537.434875 604.969604,538.310425 
	C610.992249,541.542542 617.195068,544.123291 622.569031,547.887390 
	C643.851074,562.794067 650.365417,584.050171 646.830139,608.758850 
	C643.587463,631.423157 629.193542,645.295776 608.794312,653.726257 
	C593.177124,660.180481 576.654175,662.544373 559.982361,662.775085 
	C526.160339,663.243103 492.328064,662.969604 458.000000,663.001770 
M557.269043,621.006714 
	C563.409607,619.649414 569.791870,618.946960 575.637085,616.789490 
	C585.740051,613.060608 591.302795,605.363098 591.950134,594.440247 
	C592.572815,583.932129 589.965027,574.355286 580.111877,569.388184 
	C573.459778,566.034790 565.724976,563.409912 558.371643,563.126465 
	C533.917908,562.183899 509.417755,562.445068 484.935303,562.268616 
	C484.655762,562.266602 484.373932,562.583435 484.053223,562.775330 
	C484.053223,582.137390 484.053223,601.517090 484.053223,621.027100 
	C508.377380,621.027100 532.347351,621.027100 557.269043,621.006714 
M483.700531,505.498871 
	C483.700531,510.914124 483.700531,516.329346 483.700531,521.661804 
	C505.013855,521.661804 525.655945,521.887817 546.286926,521.508118 
	C551.665955,521.409241 557.180481,519.929321 562.334778,518.196899 
	C572.619568,514.740234 579.294434,507.842743 580.004578,496.470978 
	C580.797119,483.781097 576.313904,475.016632 565.475952,470.627533 
	C559.275757,468.116577 552.330750,466.474396 545.664368,466.267242 
	C525.686462,465.646393 505.680634,465.919739 485.685669,465.871857 
	C485.076996,465.870392 484.467590,466.175568 483.700470,466.379883 
	C483.700470,479.192535 483.700470,491.845764 483.700531,505.498871 
z"/>
<path fill="#010100" opacity="1.000000" stroke="none" 
	d="
M887.314453,551.261230 
	C878.565247,566.336487 873.036499,571.275940 847.937073,586.477295 
	C865.570251,611.765076 883.188721,637.031738 901.297058,663.001038 
	C885.205261,663.001038 869.919861,662.367126 854.720154,663.234802 
	C845.353088,663.769470 839.790100,660.983887 834.683960,652.903015 
	C823.493713,635.193787 810.920776,618.363098 799.173218,600.997192 
	C796.822815,597.522644 794.347107,596.351196 790.236267,596.422363 
	C775.421875,596.678955 760.600403,596.523193 745.279236,596.523193 
	C745.279236,618.667725 745.279236,640.553162 745.279236,662.717773 
	C726.700256,662.717773 708.621643,662.717773 690.199707,662.717773 
	C690.199707,583.425903 690.199707,504.074158 690.199707,424.161713 
	C691.864746,424.161713 693.477112,424.161713 695.089478,424.161713 
	C726.911682,424.161957 758.734863,424.008881 790.555664,424.221619 
	C808.764465,424.343323 826.722778,426.381958 843.904175,433.105804 
	C880.271362,447.337921 899.694519,478.587036 896.615784,518.536194 
	C895.737549,529.932190 892.951843,540.818481 887.314453,551.261230 
M828.991028,540.510681 
	C841.044434,528.646301 843.053833,514.162781 839.319702,498.551910 
	C835.499329,482.580688 821.829468,471.497101 803.579773,470.147369 
	C789.496643,469.105804 775.320190,469.302216 761.183777,469.017029 
	C755.915527,468.910767 750.643372,468.999847 745.382690,468.999847 
	C745.382690,497.107910 745.382690,524.649841 745.382690,552.038879 
	C763.174011,552.038879 780.645813,552.278137 798.107056,551.952881 
	C809.332092,551.743835 819.696838,548.383362 828.991028,540.510681 
z"/>
<path fill="#020201" opacity="1.000000" stroke="none" 
	d="
M339.947784,532.990967 
	C331.454102,547.132446 323.045593,560.902039 314.873901,574.810791 
	C313.610504,576.961182 312.856018,579.746643 312.842621,582.243652 
	C312.699768,608.892029 312.753815,635.541504 312.753815,662.596680 
	C294.350647,662.596680 276.141632,662.596680 257.341888,662.596680 
	C257.341888,660.911438 257.341888,659.130371 257.341888,657.349304 
	C257.341919,632.353821 257.424225,607.357788 257.233002,582.363770 
	C257.210297,579.397034 256.300964,576.077271 254.777908,573.535095 
	C226.143295,525.741150 197.353516,478.040161 168.598587,430.318237 
	C167.575882,428.620941 166.578201,426.908600 165.153534,424.501587 
	C167.102310,424.358612 168.464157,424.173431 169.826248,424.171783 
	C186.323212,424.151733 202.821899,424.281494 219.315842,424.057190 
	C222.692429,424.011292 224.311447,425.293182 225.910110,427.962738 
	C245.049866,459.923706 264.287598,491.825989 283.503723,523.741211 
	C284.699493,525.727234 285.928772,527.693054 287.440948,530.154114 
	C296.463806,515.180969 305.259735,500.594604 314.045563,486.002136 
	C325.712646,466.624176 337.429016,447.275391 348.969788,427.822479 
	C350.620697,425.039703 352.392792,424.033875 355.654114,424.071869 
	C371.944458,424.261902 388.238220,424.158783 405.530914,424.158783 
	C383.464386,460.758240 361.787476,496.711487 339.947784,532.990967 
z"/>
<path fill="#FEDD59" opacity="1.000000" stroke="none" 
	d="
M556.793213,621.016907 
	C532.347351,621.027100 508.377380,621.027100 484.053223,621.027100 
	C484.053223,601.517090 484.053223,582.137390 484.053223,562.775330 
	C484.373932,562.583435 484.655762,562.266602 484.935303,562.268616 
	C509.417755,562.445068 533.917908,562.183899 558.371643,563.126465 
	C565.724976,563.409912 573.459778,566.034790 580.111877,569.388184 
	C589.965027,574.355286 592.572815,583.932129 591.950134,594.440247 
	C591.302795,605.363098 585.740051,613.060608 575.637085,616.789490 
	C569.791870,618.946960 563.409607,619.649414 556.793213,621.016907 
z"/>
<path fill="#FEDD59" opacity="1.000000" stroke="none" 
	d="
M483.700500,504.998962 
	C483.700470,491.845764 483.700470,479.192535 483.700470,466.379883 
	C484.467590,466.175568 485.076996,465.870392 485.685669,465.871857 
	C505.680634,465.919739 525.686462,465.646393 545.664368,466.267242 
	C552.330750,466.474396 559.275757,468.116577 565.475952,470.627533 
	C576.313904,475.016632 580.797119,483.781097 580.004578,496.470978 
	C579.294434,507.842743 572.619568,514.740234 562.334778,518.196899 
	C557.180481,519.929321 551.665955,521.409241 546.286926,521.508118 
	C525.655945,521.887817 505.013855,521.661804 483.700531,521.661804 
	C483.700531,516.329346 483.700531,510.914124 483.700500,504.998962 
z"/>
<path fill="#FEDD59" opacity="1.000000" stroke="none" 
	d="
M828.728271,540.750610 
	C819.696838,548.383362 809.332092,551.743835 798.107056,551.952881 
	C780.645813,552.278137 763.174011,552.038879 745.382690,552.038879 
	C745.382690,524.649841 745.382690,497.107910 745.382690,468.999847 
	C750.643372,468.999847 755.915527,468.910767 761.183777,469.017029 
	C775.320190,469.302216 789.496643,469.105804 803.579773,470.147369 
	C821.829468,471.497101 835.499329,482.580688 839.319702,498.551910 
	C843.053833,514.162781 841.044434,528.646301 828.728271,540.750610 
z"/>
</svg>
